<mxfile host="app.diagrams.net" modified="2023-04-14T00:08:03.582Z" agent="Mozilla/5.0 (Windows NT 10.0; Win64; x64) AppleWebKit/537.36 (KHTML, like Gecko) Chrome/111.0.0.0 Safari/537.36" version="21.1.7" etag="Od9CgjLAiCWOYYJ2H3xP" type="github">
  <diagram name="第 1 页" id="TIp1GO2nN3bnYXoMvy8X">
    <mxGraphModel>
      <root>
        <mxCell id="0" />
        <mxCell id="1" parent="0" />
      </root>
    </mxGraphModel>
  </diagram>
</mxfile>
